<mxfile host="app.diagrams.net" modified="2022-02-26T10:16:14.077Z" agent="5.0 (Macintosh; Intel Mac OS X 10_15_7) AppleWebKit/537.36 (KHTML, like Gecko) Chrome/98.0.4758.102 Safari/537.36" etag="aWc8I_JxuOnb6KYoM4kB" version="16.6.4" type="github">
  <diagram id="kgpKYQtTHZ0yAKxKKP6v" name="Page-1">
    <mxGraphModel dx="1426" dy="697" grid="1" gridSize="10" guides="1" tooltips="1" connect="1" arrows="1" fold="1" page="1" pageScale="1" pageWidth="850" pageHeight="1100" math="0" shadow="0">
      <root>
        <mxCell id="0" />
        <mxCell id="1" parent="0" />
        <mxCell id="ogGdIiwSezOgG4cDVrzh-1" value="" style="endArrow=none;html=1;shadow=0;targetPerimeterSpacing=0;strokeColor=default;curved=1;strokeWidth=5;" edge="1" parent="1">
          <mxGeometry width="50" height="50" relative="1" as="geometry">
            <mxPoint x="200" y="200" as="sourcePoint" />
            <mxPoint x="720" y="200" as="targetPoint" />
          </mxGeometry>
        </mxCell>
        <mxCell id="ogGdIiwSezOgG4cDVrzh-2" value="" style="endArrow=none;html=1;shadow=0;targetPerimeterSpacing=0;strokeColor=default;curved=1;strokeWidth=5;" edge="1" parent="1">
          <mxGeometry width="50" height="50" relative="1" as="geometry">
            <mxPoint x="200" y="320" as="sourcePoint" />
            <mxPoint x="720" y="320" as="targetPoint" />
          </mxGeometry>
        </mxCell>
        <mxCell id="ogGdIiwSezOgG4cDVrzh-4" value="" style="endArrow=none;html=1;shadow=0;targetPerimeterSpacing=0;strokeColor=#CC0000;curved=1;strokeWidth=5;" edge="1" parent="1">
          <mxGeometry width="50" height="50" relative="1" as="geometry">
            <mxPoint x="400" y="310" as="sourcePoint" />
            <mxPoint x="560" y="310" as="targetPoint" />
          </mxGeometry>
        </mxCell>
        <mxCell id="ogGdIiwSezOgG4cDVrzh-5" value="" style="endArrow=none;html=1;shadow=0;targetPerimeterSpacing=0;strokeColor=#CC0000;curved=1;strokeWidth=5;" edge="1" parent="1">
          <mxGeometry width="50" height="50" relative="1" as="geometry">
            <mxPoint x="200" y="310" as="sourcePoint" />
            <mxPoint x="360" y="310" as="targetPoint" />
          </mxGeometry>
        </mxCell>
        <mxCell id="ogGdIiwSezOgG4cDVrzh-6" value="" style="endArrow=none;html=1;shadow=0;targetPerimeterSpacing=0;strokeColor=#CC0000;curved=1;strokeWidth=5;" edge="1" parent="1">
          <mxGeometry width="50" height="50" relative="1" as="geometry">
            <mxPoint x="600" y="310" as="sourcePoint" />
            <mxPoint x="720" y="310" as="targetPoint" />
          </mxGeometry>
        </mxCell>
        <mxCell id="ogGdIiwSezOgG4cDVrzh-7" value="" style="endArrow=none;html=1;shadow=0;targetPerimeterSpacing=0;strokeColor=#CC0000;curved=1;strokeWidth=5;" edge="1" parent="1">
          <mxGeometry width="50" height="50" relative="1" as="geometry">
            <mxPoint x="520" y="190" as="sourcePoint" />
            <mxPoint x="720" y="190" as="targetPoint" />
          </mxGeometry>
        </mxCell>
        <mxCell id="ogGdIiwSezOgG4cDVrzh-8" value="" style="endArrow=none;html=1;shadow=0;targetPerimeterSpacing=0;strokeColor=#CC0000;curved=1;strokeWidth=5;" edge="1" parent="1">
          <mxGeometry width="50" height="50" relative="1" as="geometry">
            <mxPoint x="200" y="190" as="sourcePoint" />
            <mxPoint x="360" y="190" as="targetPoint" />
          </mxGeometry>
        </mxCell>
      </root>
    </mxGraphModel>
  </diagram>
</mxfile>
